# Blender v2.79 (sub 0) OBJ File: 'crystal_target.blend'
# www.blender.org
mtllib crystal_target.mtl
o Crystal_Target_Sphere
v 0.000000 0.136563 -0.686550
v 0.000000 0.000000 -0.700000
v 0.000000 -0.136563 -0.686550
v 0.133939 0.136563 -0.673358
v 0.136563 0.000000 -0.686550
v 0.133939 -0.136563 -0.673358
v 0.262731 0.136563 -0.634289
v 0.267878 0.000000 -0.646716
v 0.262731 -0.136563 -0.634289
v 0.381427 0.136563 -0.570845
v 0.388899 0.000000 -0.582029
v 0.381427 -0.136563 -0.570845
v 0.485464 0.136563 -0.485464
v 0.494975 0.000000 -0.494975
v 0.485464 -0.136563 -0.485464
v 0.570845 0.136563 -0.381426
v 0.582029 0.000000 -0.388899
v 0.570845 -0.136563 -0.381426
v 0.634289 0.136563 -0.262731
v 0.646716 0.000000 -0.267878
v 0.634289 -0.136563 -0.262731
v 0.673358 0.136563 -0.133939
v 0.686550 0.000000 -0.136563
v 0.673358 -0.136563 -0.133939
v 0.686550 0.136563 0.000000
v 0.700000 0.000000 0.000000
v 0.686550 -0.136563 0.000000
v 0.673358 0.136563 0.133939
v 0.686550 0.000000 0.136564
v 0.673358 -0.136563 0.133939
v 0.634289 0.136563 0.262731
v 0.646716 0.000000 0.267879
v 0.634289 -0.136563 0.262731
v 0.570845 0.136563 0.381427
v 0.582029 0.000000 0.388899
v 0.570845 -0.136563 0.381427
v 0.485464 0.136563 0.485464
v 0.494975 0.000000 0.494975
v 0.485464 -0.136563 0.485464
v 0.381426 0.136563 0.570845
v 0.388899 0.000000 0.582029
v 0.381426 -0.136563 0.570845
v 0.262731 0.136563 0.634289
v 0.267878 0.000000 0.646716
v 0.262731 -0.136563 0.634289
v 0.133939 0.136563 0.673358
v 0.136563 0.000000 0.686550
v 0.133939 -0.136563 0.673358
v -0.000000 0.136563 0.686550
v -0.000000 0.000000 0.700000
v -0.000000 -0.136563 0.686550
v -0.133939 0.136563 0.673358
v -0.136563 0.000000 0.686550
v -0.133939 -0.136563 0.673358
v -0.262731 0.136563 0.634289
v -0.267879 0.000000 0.646716
v -0.262731 -0.136563 0.634289
v -0.381427 0.136563 0.570845
v -0.388899 0.000000 0.582029
v -0.381427 -0.136563 0.570845
v -0.485464 0.136563 0.485464
v -0.494975 0.000000 0.494975
v -0.485464 -0.136563 0.485464
v -0.570845 0.136563 0.381427
v -0.582029 0.000000 0.388899
v -0.570845 -0.136563 0.381427
v -0.634289 0.136563 0.262731
v -0.646716 0.000000 0.267878
v -0.634289 -0.136563 0.262731
v -0.673358 0.136563 0.133939
v -0.686550 0.000000 0.136563
v -0.673358 -0.136563 0.133939
v -0.686549 0.136563 0.000000
v -0.700000 0.000000 0.000000
v -0.686549 -0.136563 0.000000
v -0.673357 0.136563 -0.133939
v -0.686549 0.000000 -0.136563
v -0.673357 -0.136563 -0.133939
v -0.634289 0.136563 -0.262731
v -0.646715 0.000000 -0.267878
v -0.634289 -0.136563 -0.262731
v -0.570845 0.136563 -0.381426
v -0.582028 0.000000 -0.388899
v -0.570845 -0.136563 -0.381426
v -0.485464 0.136563 -0.485464
v -0.494974 0.000000 -0.494974
v -0.485464 -0.136563 -0.485464
v -0.381426 0.136563 -0.570845
v -0.388899 0.000000 -0.582028
v -0.381426 -0.136563 -0.570845
v -0.262731 0.136563 -0.634289
v -0.267878 0.000000 -0.646715
v -0.262731 -0.136563 -0.634289
v -0.133939 0.136563 -0.673357
v -0.136563 0.000000 -0.686549
v -0.133939 -0.136563 -0.673357
v 0.000000 0.129531 -0.651197
v 0.000000 0.000000 -0.663954
v 0.000000 -0.129531 -0.651197
v 0.127042 0.129531 -0.638684
v 0.129531 0.000000 -0.651197
v 0.127042 -0.129531 -0.638684
v 0.249202 0.129531 -0.601627
v 0.254084 0.000000 -0.613414
v 0.249202 -0.129531 -0.601627
v 0.361786 0.129531 -0.541450
v 0.368873 0.000000 -0.552058
v 0.361786 -0.129531 -0.541450
v 0.460466 0.129531 -0.460465
v 0.469487 0.000000 -0.469486
v 0.460466 -0.129531 -0.460465
v 0.541450 0.129531 -0.361785
v 0.552058 0.000000 -0.368873
v 0.541450 -0.129531 -0.361785
v 0.601627 0.129531 -0.249202
v 0.613414 0.000000 -0.254084
v 0.601627 -0.129531 -0.249202
v 0.638684 0.129531 -0.127042
v 0.651197 0.000000 -0.129531
v 0.638684 -0.129531 -0.127042
v 0.651197 0.129531 0.000000
v 0.663954 0.000000 0.000000
v 0.651197 -0.129531 0.000000
v 0.638684 0.129531 0.127042
v 0.651197 0.000000 0.129531
v 0.638684 -0.129531 0.127042
v 0.601627 0.129531 0.249202
v 0.613414 0.000000 0.254085
v 0.601627 -0.129531 0.249202
v 0.541450 0.129531 0.361786
v 0.552058 0.000000 0.368874
v 0.541450 -0.129531 0.361786
v 0.460465 0.129531 0.460466
v 0.469487 0.000000 0.469487
v 0.460465 -0.129531 0.460466
v 0.361785 0.129531 0.541450
v 0.368873 0.000000 0.552058
v 0.361785 -0.129531 0.541450
v 0.249202 0.129531 0.601627
v 0.254084 0.000000 0.613414
v 0.249202 -0.129531 0.601627
v 0.127042 0.129531 0.638684
v 0.129531 0.000000 0.651197
v 0.127042 -0.129531 0.638684
v -0.000000 0.129531 0.651197
v -0.000000 0.000000 0.663955
v -0.000000 -0.129531 0.651197
v -0.127042 0.129531 0.638684
v -0.129531 0.000000 0.651197
v -0.127042 -0.129531 0.638684
v -0.249202 0.129531 0.601627
v -0.254084 0.000000 0.613414
v -0.249202 -0.129531 0.601627
v -0.361785 0.129531 0.541450
v -0.368873 0.000000 0.552058
v -0.361785 -0.129531 0.541450
v -0.460465 0.129531 0.460466
v -0.469487 0.000000 0.469487
v -0.460465 -0.129531 0.460466
v -0.541450 0.129531 0.361785
v -0.552058 0.000000 0.368873
v -0.541450 -0.129531 0.361785
v -0.601627 0.129531 0.249202
v -0.613414 0.000000 0.254084
v -0.601627 -0.129531 0.249202
v -0.638684 0.129531 0.127042
v -0.651197 0.000000 0.129531
v -0.638684 -0.129531 0.127042
v -0.651196 0.129531 0.000000
v -0.663954 0.000000 0.000000
v -0.651196 -0.129531 0.000000
v -0.638684 0.129531 -0.127042
v -0.651196 0.000000 -0.129531
v -0.638684 -0.129531 -0.127042
v -0.601627 0.129531 -0.249202
v -0.613414 0.000000 -0.254084
v -0.601627 -0.129531 -0.249202
v -0.541450 0.129531 -0.361785
v -0.552058 0.000000 -0.368873
v -0.541450 -0.129531 -0.361785
v -0.460465 0.129531 -0.460465
v -0.469486 0.000000 -0.469486
v -0.460465 -0.129531 -0.460465
v -0.361785 0.129531 -0.541450
v -0.368873 0.000000 -0.552058
v -0.361785 -0.129531 -0.541450
v -0.249202 0.129531 -0.601627
v -0.254084 0.000000 -0.613413
v -0.249202 -0.129531 -0.601627
v -0.127042 0.129531 -0.638683
v -0.129531 0.000000 -0.651196
v -0.127042 -0.129531 -0.638683
vn 0.0000 -0.7814 -0.6240
vn 0.0000 0.0000 -1.0000
vn 0.1951 0.0000 -0.9808
vn 0.1217 -0.7814 -0.6120
vn 0.0000 0.7814 -0.6240
vn 0.1217 0.7814 -0.6120
vn 0.2388 0.7814 -0.5765
vn 0.3827 0.0000 -0.9239
vn 0.2388 -0.7814 -0.5765
vn 0.3467 0.7814 -0.5188
vn 0.5556 0.0000 -0.8314
vn 0.3467 -0.7814 -0.5188
vn 0.4412 0.7814 -0.4412
vn 0.7071 0.0000 -0.7071
vn 0.4412 -0.7814 -0.4412
vn 0.5188 0.7814 -0.3467
vn 0.8314 0.0000 -0.5556
vn 0.5188 -0.7814 -0.3467
vn 0.9239 0.0000 -0.3827
vn 0.5765 -0.7814 -0.2388
vn 0.5765 0.7814 -0.2388
vn 0.6120 0.7814 -0.1217
vn 0.9808 0.0000 -0.1951
vn 0.6120 -0.7814 -0.1217
vn 1.0000 0.0000 0.0000
vn 0.6240 -0.7814 0.0000
vn 0.6240 0.7814 0.0000
vn 0.6120 0.7814 0.1217
vn 0.9808 0.0000 0.1951
vn 0.6120 -0.7814 0.1217
vn 0.5765 0.7814 0.2388
vn 0.9239 0.0000 0.3827
vn 0.5765 -0.7814 0.2388
vn 0.5188 0.7814 0.3467
vn 0.8314 0.0000 0.5556
vn 0.5188 -0.7814 0.3467
vn 0.4412 0.7814 0.4412
vn 0.7071 0.0000 0.7071
vn 0.4412 -0.7814 0.4412
vn 0.3467 0.7814 0.5188
vn 0.5556 0.0000 0.8314
vn 0.3467 -0.7814 0.5188
vn 0.2388 0.7814 0.5765
vn 0.3827 0.0000 0.9239
vn 0.2388 -0.7814 0.5765
vn 0.1217 0.7814 0.6120
vn 0.1951 0.0000 0.9808
vn 0.1217 -0.7814 0.6120
vn 0.0000 0.7814 0.6240
vn 0.0000 0.0000 1.0000
vn 0.0000 -0.7814 0.6240
vn -0.1217 0.7814 0.6120
vn -0.1951 0.0000 0.9808
vn -0.1217 -0.7814 0.6120
vn -0.2388 0.7814 0.5765
vn -0.3827 0.0000 0.9239
vn -0.2388 -0.7814 0.5765
vn -0.5556 0.0000 0.8314
vn -0.3467 -0.7814 0.5188
vn -0.3467 0.7814 0.5188
vn -0.4412 0.7814 0.4412
vn -0.7071 0.0000 0.7071
vn -0.4412 -0.7814 0.4412
vn -0.8314 0.0000 0.5556
vn -0.5188 -0.7814 0.3467
vn -0.5188 0.7814 0.3467
vn -0.5765 0.7814 0.2388
vn -0.9239 0.0000 0.3827
vn -0.5765 -0.7814 0.2388
vn -0.6120 0.7814 0.1217
vn -0.9808 0.0000 0.1951
vn -0.6120 -0.7814 0.1217
vn -0.6240 0.7814 0.0000
vn -1.0000 0.0000 0.0000
vn -0.6240 -0.7814 0.0000
vn -0.6120 0.7814 -0.1217
vn -0.9808 0.0000 -0.1951
vn -0.6120 -0.7814 -0.1217
vn -0.5765 0.7814 -0.2388
vn -0.9239 0.0000 -0.3827
vn -0.5765 -0.7814 -0.2388
vn -0.5188 0.7814 -0.3467
vn -0.8314 0.0000 -0.5556
vn -0.5188 -0.7814 -0.3467
vn -0.4412 0.7814 -0.4412
vn -0.7071 0.0000 -0.7071
vn -0.4412 -0.7814 -0.4412
vn -0.3467 0.7814 -0.5188
vn -0.5556 0.0000 -0.8314
vn -0.3467 -0.7814 -0.5188
vn -0.2388 0.7814 -0.5765
vn -0.3827 0.0000 -0.9239
vn -0.2388 -0.7814 -0.5765
vn -0.1217 0.7814 -0.6120
vn -0.1951 0.0000 -0.9808
vn -0.1217 -0.7814 -0.6120
vn 0.0000 -0.6166 0.7873
vn -0.1536 -0.6166 0.7721
vn -0.1536 0.6166 0.7721
vn 0.0000 0.6166 0.7873
vn -0.3013 0.6166 0.7273
vn -0.3013 -0.6166 0.7273
vn -0.4374 0.6166 0.6546
vn -0.4374 -0.6166 0.6546
vn -0.5567 0.6166 0.5567
vn -0.5567 -0.6166 0.5567
vn -0.6546 0.6166 0.4374
vn -0.6546 -0.6166 0.4374
vn -0.7273 -0.6166 0.3013
vn -0.7273 0.6166 0.3013
vn -0.7721 0.6166 0.1536
vn -0.7721 -0.6166 0.1536
vn -0.7873 -0.6166 0.0000
vn -0.7873 0.6166 0.0000
vn -0.7721 0.6166 -0.1536
vn -0.7721 -0.6166 -0.1536
vn -0.7273 0.6166 -0.3013
vn -0.7273 -0.6166 -0.3013
vn -0.6546 0.6166 -0.4374
vn -0.6546 -0.6166 -0.4374
vn -0.5567 0.6166 -0.5567
vn -0.5567 -0.6166 -0.5567
vn -0.4374 0.6166 -0.6546
vn -0.4374 -0.6166 -0.6546
vn -0.3013 0.6166 -0.7273
vn -0.3013 -0.6166 -0.7273
vn -0.1536 0.6166 -0.7721
vn -0.1536 -0.6166 -0.7721
vn 0.0000 0.6166 -0.7873
vn 0.0000 -0.6166 -0.7873
vn 0.1536 0.6166 -0.7721
vn 0.1536 -0.6166 -0.7721
vn 0.3013 0.6166 -0.7273
vn 0.3013 -0.6166 -0.7273
vn 0.4374 -0.6166 -0.6546
vn 0.4374 0.6166 -0.6546
vn 0.5567 0.6166 -0.5567
vn 0.5567 -0.6166 -0.5567
vn 0.6546 -0.6166 -0.4374
vn 0.6546 0.6166 -0.4374
vn 0.7273 0.6166 -0.3013
vn 0.7273 -0.6166 -0.3013
vn 0.7721 0.6166 -0.1536
vn 0.7721 -0.6166 -0.1536
vn 0.7873 0.6166 0.0000
vn 0.7873 -0.6166 0.0000
vn 0.7721 0.6166 0.1536
vn 0.7721 -0.6166 0.1536
vn 0.7273 0.6166 0.3013
vn 0.7273 -0.6166 0.3013
vn 0.6546 0.6166 0.4374
vn 0.6546 -0.6166 0.4374
vn 0.5567 0.6166 0.5567
vn 0.5567 -0.6166 0.5567
vn 0.4374 0.6166 0.6546
vn 0.4374 -0.6166 0.6546
vn 0.3013 0.6166 0.7273
vn 0.3013 -0.6166 0.7273
vn 0.1536 0.6166 0.7721
vn 0.1536 -0.6166 0.7721
usemtl None
s 1
f 3//1 2//2 5//3 6//4
f 2//2 1//5 4//6 5//3
f 5//3 4//6 7//7 8//8
f 6//4 5//3 8//8 9//9
f 8//8 7//7 10//10 11//11
f 9//9 8//8 11//11 12//12
f 11//11 10//10 13//13 14//14
f 12//12 11//11 14//14 15//15
f 14//14 13//13 16//16 17//17
f 15//15 14//14 17//17 18//18
f 18//18 17//17 20//19 21//20
f 17//17 16//16 19//21 20//19
f 20//19 19//21 22//22 23//23
f 21//20 20//19 23//23 24//24
f 24//24 23//23 26//25 27//26
f 23//23 22//22 25//27 26//25
f 26//25 25//27 28//28 29//29
f 27//26 26//25 29//29 30//30
f 29//29 28//28 31//31 32//32
f 30//30 29//29 32//32 33//33
f 32//32 31//31 34//34 35//35
f 33//33 32//32 35//35 36//36
f 35//35 34//34 37//37 38//38
f 36//36 35//35 38//38 39//39
f 38//38 37//37 40//40 41//41
f 39//39 38//38 41//41 42//42
f 41//41 40//40 43//43 44//44
f 42//42 41//41 44//44 45//45
f 44//44 43//43 46//46 47//47
f 45//45 44//44 47//47 48//48
f 47//47 46//46 49//49 50//50
f 48//48 47//47 50//50 51//51
f 50//50 49//49 52//52 53//53
f 51//51 50//50 53//53 54//54
f 53//53 52//52 55//55 56//56
f 54//54 53//53 56//56 57//57
f 57//57 56//56 59//58 60//59
f 56//56 55//55 58//60 59//58
f 59//58 58//60 61//61 62//62
f 60//59 59//58 62//62 63//63
f 63//63 62//62 65//64 66//65
f 62//62 61//61 64//66 65//64
f 65//64 64//66 67//67 68//68
f 66//65 65//64 68//68 69//69
f 68//68 67//67 70//70 71//71
f 69//69 68//68 71//71 72//72
f 71//71 70//70 73//73 74//74
f 72//72 71//71 74//74 75//75
f 74//74 73//73 76//76 77//77
f 75//75 74//74 77//77 78//78
f 77//77 76//76 79//79 80//80
f 78//78 77//77 80//80 81//81
f 80//80 79//79 82//82 83//83
f 81//81 80//80 83//83 84//84
f 83//83 82//82 85//85 86//86
f 84//84 83//83 86//86 87//87
f 86//86 85//85 88//88 89//89
f 87//87 86//86 89//89 90//90
f 89//89 88//88 91//91 92//92
f 90//90 89//89 92//92 93//93
f 92//92 91//91 94//94 95//95
f 93//93 92//92 95//95 96//96
f 96//96 95//95 2//2 3//1
f 95//95 94//94 1//5 2//2
f 99//97 102//98 101//53 98//50
f 98//50 101//53 100//99 97//100
f 101//53 104//56 103//101 100//99
f 102//98 105//102 104//56 101//53
f 104//56 107//58 106//103 103//101
f 105//102 108//104 107//58 104//56
f 107//58 110//62 109//105 106//103
f 108//104 111//106 110//62 107//58
f 110//62 113//64 112//107 109//105
f 111//106 114//108 113//64 110//62
f 114//108 117//109 116//68 113//64
f 113//64 116//68 115//110 112//107
f 116//68 119//71 118//111 115//110
f 117//109 120//112 119//71 116//68
f 120//112 123//113 122//74 119//71
f 119//71 122//74 121//114 118//111
f 122//74 125//77 124//115 121//114
f 123//113 126//116 125//77 122//74
f 125//77 128//80 127//117 124//115
f 126//116 129//118 128//80 125//77
f 128//80 131//83 130//119 127//117
f 129//118 132//120 131//83 128//80
f 131//83 134//86 133//121 130//119
f 132//120 135//122 134//86 131//83
f 134//86 137//89 136//123 133//121
f 135//122 138//124 137//89 134//86
f 137//89 140//92 139//125 136//123
f 138//124 141//126 140//92 137//89
f 140//92 143//95 142//127 139//125
f 141//126 144//128 143//95 140//92
f 143//95 146//2 145//129 142//127
f 144//128 147//130 146//2 143//95
f 146//2 149//3 148//131 145//129
f 147//130 150//132 149//3 146//2
f 149//3 152//8 151//133 148//131
f 150//132 153//134 152//8 149//3
f 153//134 156//135 155//11 152//8
f 152//8 155//11 154//136 151//133
f 155//11 158//14 157//137 154//136
f 156//135 159//138 158//14 155//11
f 159//138 162//139 161//17 158//14
f 158//14 161//17 160//140 157//137
f 161//17 164//19 163//141 160//140
f 162//139 165//142 164//19 161//17
f 164//19 167//23 166//143 163//141
f 165//142 168//144 167//23 164//19
f 167//23 170//25 169//145 166//143
f 168//144 171//146 170//25 167//23
f 170//25 173//29 172//147 169//145
f 171//146 174//148 173//29 170//25
f 173//29 176//32 175//149 172//147
f 174//148 177//150 176//32 173//29
f 176//32 179//35 178//151 175//149
f 177//150 180//152 179//35 176//32
f 179//35 182//38 181//153 178//151
f 180//152 183//154 182//38 179//35
f 182//38 185//41 184//155 181//153
f 183//154 186//156 185//41 182//38
f 185//41 188//44 187//157 184//155
f 186//156 189//158 188//44 185//41
f 188//44 191//47 190//159 187//157
f 189//158 192//160 191//47 188//44
f 192//160 99//97 98//50 191//47
f 191//47 98//50 97//100 190//159
f 25//27 121//114 124//115 28//28
f 45//45 141//126 138//124 42//42
f 88//88 184//155 187//157 91//91
f 73//73 169//145 172//147 76//76
f 30//30 126//116 123//113 27//26
f 93//93 189//158 186//156 90//90
f 10//10 106//103 109//105 13//13
f 58//60 154//136 157//137 61//61
f 15//15 111//106 108//104 12//12
f 78//78 174//148 171//146 75//75
f 63//63 159//138 156//135 60//59
f 43//43 139//125 142//127 46//46
f 33//33 129//118 126//116 30//30
f 91//91 187//157 190//159 94//94
f 48//48 144//128 141//126 45//45
f 28//28 124//115 127//117 31//31
f 13//13 109//105 112//107 16//16
f 76//76 172//147 175//149 79//79
f 96//96 192//160 189//158 93//93
f 66//65 162//139 159//138 63//63
f 3//1 99//97 192//160 96//96
f 18//18 114//108 111//106 15//15
f 81//81 177//150 174//148 78//78
f 46//46 142//127 145//129 49//49
f 61//61 157//137 160//140 64//66
f 31//31 127//117 130//119 34//34
f 94//94 190//159 97//100 1//5
f 51//51 147//130 144//128 48//48
f 21//20 117//109 114//108 18//18
f 79//79 175//149 178//151 82//82
f 36//36 132//120 129//118 33//33
f 6//4 102//98 99//97 3//1
f 64//66 160//140 163//141 67//67
f 16//16 112//107 115//110 19//21
f 84//84 180//152 177//150 81//81
f 1//5 97//100 100//99 4//6
f 69//69 165//142 162//139 66//65
f 49//49 145//129 148//131 52//52
f 39//39 135//122 132//120 36//36
f 54//54 150//132 147//130 51//51
f 34//34 130//119 133//121 37//37
f 19//21 115//110 118//111 22//22
f 82//82 178//151 181//153 85//85
f 4//6 100//99 103//101 7//7
f 72//72 168//144 165//142 69//69
f 24//24 120//112 117//109 21//20
f 87//87 183//154 180//152 84//84
f 67//67 163//141 166//143 70//70
f 52//52 148//131 151//133 55//55
f 9//9 105//102 102//98 6//4
f 37//37 133//121 136//123 40//40
f 57//57 153//134 150//132 54//54
f 27//26 123//113 120//112 24//24
f 85//85 181//153 184//155 88//88
f 42//42 138//124 135//122 39//39
f 7//7 103//101 106//103 10//10
f 70//70 166//143 169//145 73//73
f 22//22 118//111 121//114 25//27
f 90//90 186//156 183//154 87//87
f 60//59 156//135 153//134 57//57
f 12//12 108//104 105//102 9//9
f 75//75 171//146 168//144 72//72
f 40//40 136//123 139//125 43//43
f 55//55 151//133 154//136 58//60
