# Blender v2.79 (sub 0) OBJ File: 'crystal.blend'
# www.blender.org
mtllib crystal.mtl
o Cyrstal_Cube.002
v -0.151996 -0.491924 0.224406
v -0.208768 0.056191 0.309223
v -0.051921 -0.467079 -0.179201
v -0.045608 0.474468 -0.259126
v 0.212654 -0.483663 0.277826
v 0.261213 0.244166 0.292676
v 0.173669 -0.514552 -0.152287
v 0.281201 0.356265 -0.217004
v 0.000000 1.000000 -0.002310
v 0.000000 -1.000000 -0.002310
v 0.021751 -0.597250 0.298910
v 0.040964 0.217602 0.424621
v -0.287917 -0.434190 -0.006930
v -0.348641 0.308480 -0.006930
v 0.293599 -0.602657 0.055882
v 0.364836 0.068425 -0.006930
vn -0.6089 -0.0572 -0.7912
vn 0.0983 -0.0853 -0.9915
vn 0.9281 -0.0669 0.3663
vn -0.3877 -0.1511 0.9093
vn -0.5730 -0.4708 0.6708
vn 0.9238 0.3612 0.1271
vn -0.7153 0.3566 0.6010
vn 0.4177 0.4520 0.7882
vn 0.0479 -0.3105 -0.9494
vn -0.5888 -0.3057 -0.7482
vn 0.6427 -0.5526 0.5307
vn 0.2597 0.4057 -0.8763
vn -0.5755 0.3683 0.7302
vn 0.4125 -0.5598 0.7187
vn 0.3769 -0.1005 0.9208
vn 0.6933 -0.4273 -0.5803
vn -0.8253 -0.4169 0.3809
vn -0.7054 0.3597 -0.6108
vn 0.9259 0.3621 0.1078
vn 0.8345 -0.1408 -0.5327
vn -0.9112 -0.1090 0.3973
usemtl None
s off
f 13//1 14//1 4//1 3//1
f 3//2 4//2 8//2 7//2
f 15//3 16//3 6//3 5//3
f 11//4 12//4 2//4 1//4
f 11//5 1//5 10//5
f 16//6 8//6 9//6
f 14//7 2//7 9//7
f 12//8 6//8 9//8
f 3//9 7//9 10//9
f 13//10 3//10 10//10
f 15//11 5//11 10//11
f 8//12 4//12 9//12
f 2//13 12//13 9//13
f 5//14 11//14 10//14
f 5//15 6//15 12//15 11//15
f 7//16 15//16 10//16
f 1//17 13//17 10//17
f 4//18 14//18 9//18
f 6//19 16//19 9//19
f 7//20 8//20 16//20 15//20
f 1//21 2//21 14//21 13//21
